# xmcd
#
# Track frame offsets:
#	150
#	3714
#	41653
#	71711
#	94558
#	123610
#	163992
#	184161
#	214448
#	242891
#	260382
#	293979
#	320929
#
# Disc length: 4710 seconds
#
# Revision: 12
# Processed by: cddbd v1.5.1PL0 Copyright (c) Steve Scherf et al.
# Submitted via: dBpowerAMP V4.0
#
DISCID=d212640d
DTITLE=Prodigy - Music for the jilted generation
DYEAR=1994
DGENRE=Other
TTITLE0=Intro
TTITLE1=Break and enter
TTITLE2=Their law
TTITLE3=Full throttle
TTITLE4=Voodoo people
TTITLE5=Speedway
TTITLE6=The Heat (The Energy)
TTITLE7=Poison
TTITLE8=No good (Start the dance)
TTITLE9=One love
TTITLE10=3 kilos
TTITLE11=Skylined
TTITLE12=Claustrophobic sting
EXTD=
EXTT0=
EXTT1=
EXTT2=
EXTT3=
EXTT4=
EXTT5=
EXTT6=
EXTT7=
EXTT8=
EXTT9=
EXTT10=
EXTT11=
EXTT12=
PLAYORDER=
